<svg width="300" height="300" viewBox="0 0 300 300" fill="none" xmlns="http://www.w3.org/2000/svg">
<g clip-path="url(#clip0_385_283)">
<circle cx="150" cy="150" r="149" fill="#EEEEEE" stroke="#AAAAAA" stroke-width="2"/>
<mask id="path-2-inside-1_385_283" fill="white">
<path fill-rule="evenodd" clip-rule="evenodd" d="M37.5 249.218V243.75C37.5 206.344 112.453 187.5 150 187.5C187.547 187.5 262.5 206.344 262.5 243.75V249.218C235.015 280.359 194.801 300 150 300C105.199 300 64.9854 280.359 37.5 249.218ZM150 62.5C118.922 62.5 93.75 87.6719 93.75 118.75C93.75 149.828 118.922 175 150 175C181.078 175 206.25 149.828 206.25 118.75C206.25 87.6719 181.078 62.5 150 62.5Z"/>
</mask>
<path fill-rule="evenodd" clip-rule="evenodd" d="M37.5 249.218V243.75C37.5 206.344 112.453 187.5 150 187.5C187.547 187.5 262.5 206.344 262.5 243.75V249.218C235.015 280.359 194.801 300 150 300C105.199 300 64.9854 280.359 37.5 249.218ZM150 62.5C118.922 62.5 93.75 87.6719 93.75 118.75C93.75 149.828 118.922 175 150 175C181.078 175 206.25 149.828 206.25 118.75C206.25 87.6719 181.078 62.5 150 62.5Z" fill="#EEEEEE"/>
<path d="M37.5 249.218H35.5V249.975L36.0005 250.542L37.5 249.218ZM262.5 249.218L263.999 250.542L264.5 249.975V249.218H262.5ZM39.5 249.218V243.75H35.5V249.218H39.5ZM39.5 243.75C39.5 235.133 43.8007 227.437 51.1545 220.65C58.522 213.85 68.8199 208.099 80.4137 203.454C103.604 194.164 131.477 189.5 150 189.5V185.5C130.977 185.5 102.599 190.258 78.9262 199.741C67.0883 204.483 56.3013 210.456 48.4416 217.71C40.5684 224.977 35.5 233.664 35.5 243.75H39.5ZM150 189.5C168.523 189.5 196.396 194.164 219.586 203.454C231.18 208.099 241.478 213.85 248.845 220.65C256.199 227.437 260.5 235.133 260.5 243.75H264.5C264.5 233.664 259.432 224.977 251.558 217.71C243.699 210.456 232.912 204.483 221.074 199.741C197.401 190.258 169.023 185.5 150 185.5V189.5ZM260.5 243.75V249.218H264.5V243.75H260.5ZM261.001 247.895C233.879 278.624 194.203 298 150 298V302C195.399 302 236.151 282.095 263.999 250.542L261.001 247.895ZM150 298C105.797 298 66.1213 278.624 38.9995 247.895L36.0005 250.542C63.8495 282.095 104.601 302 150 302V298ZM95.75 118.75C95.75 88.7764 120.026 64.5 150 64.5V60.5C117.817 60.5 91.75 86.5673 91.75 118.75H95.75ZM150 173C120.026 173 95.75 148.724 95.75 118.75H91.75C91.75 150.933 117.817 177 150 177V173ZM204.25 118.75C204.25 148.724 179.974 173 150 173V177C182.183 177 208.25 150.933 208.25 118.75H204.25ZM150 64.5C179.974 64.5 204.25 88.7764 204.25 118.75H208.25C208.25 86.5673 182.183 60.5 150 60.5V64.5Z" fill="#AAAAAA" mask="url(#path-2-inside-1_385_283)"/>
</g>
<defs>
<clipPath id="clip0_385_283">
<rect width="300" height="300" fill="white"/>
</clipPath>
</defs>
</svg>
