<svg width="400" height="490" viewBox="0 0 400 490" fill="#EEEEEE" xmlns="http://www.w3.org/2000/svg">
<path d="M316.667 61.1705H83.3333C64.9238 61.1705 50 79.4285 50 101.951V387.413C50 409.936 64.9238 428.194 83.3333 428.194H316.667C335.076 428.194 350 409.936 350 387.413V101.951C350 79.4285 335.076 61.1705 316.667 61.1705Z" stroke="#333333" stroke-width="2" stroke-linecap="round" stroke-linejoin="round"/>
<path d="M141.667 203.902C155.474 203.902 166.667 190.208 166.667 173.316C166.667 156.425 155.474 142.731 141.667 142.731C127.86 142.731 116.667 156.425 116.667 173.316C116.667 190.208 127.86 203.902 141.667 203.902Z" stroke="#333333" stroke-width="2" stroke-linecap="round" stroke-linejoin="round"/>
<path d="M350 305.853L266.667 203.902L83.3333 428.194" stroke="#333333" stroke-width="2" stroke-linecap="round" stroke-linejoin="round"/>
</svg>
