<svg width="387" height="374" viewBox="0 0 387 374" fill="none" xmlns="http://www.w3.org/2000/svg">
<path d="M28.9172 316.521V241.797C28.9172 238.748 30.1359 235.824 32.3051 233.668C34.4743 231.512 37.4164 230.301 40.4841 230.301H144.586C147.654 230.301 150.596 231.512 152.765 233.668C154.934 235.824 156.153 238.748 156.153 241.797V316.521" stroke="#C9D1D9" stroke-width="2" stroke-linecap="round" stroke-linejoin="round"/>
<path d="M17.3503 316.521H167.72V328.016C167.72 331.065 166.501 333.989 164.332 336.145C162.163 338.301 159.221 339.512 156.153 339.512H28.9172C25.8495 339.512 22.9074 338.301 20.7382 336.145C18.569 333.989 17.3503 331.065 17.3503 328.016V316.521Z" stroke="#C9D1D9" stroke-width="2" stroke-linecap="round" stroke-linejoin="round"/>
<path d="M104.102 253.293H80.9683" stroke="#C9D1D9" stroke-width="2" stroke-linecap="round" stroke-linejoin="round"/>
<path d="M283.116 38.995C283.127 41.2777 281.226 43.1624 278.837 43.1736C276.448 43.1848 274.529 41.3181 274.518 39.0355C274.507 36.7529 276.409 34.8682 278.797 34.8569C281.186 34.8457 283.106 36.7124 283.116 38.995Z" stroke="#C9D1D9"/>
<path d="M283.116 112.569C283.127 114.852 281.226 116.736 278.837 116.747C276.448 116.759 274.529 114.892 274.518 112.609C274.507 110.327 276.409 108.442 278.797 108.431C281.186 108.42 283.106 110.286 283.116 112.569Z" stroke="#C9D1D9"/>
<path d="M336.17 38.995C336.181 41.2777 334.279 43.1624 331.89 43.1736C329.502 43.1848 327.582 41.3181 327.571 39.0355C327.56 36.7529 329.462 34.8682 331.851 34.8569C334.239 34.8457 336.159 36.7124 336.17 38.995Z" stroke="#C9D1D9"/>
<path d="M336.17 112.569C336.181 114.852 334.279 116.736 331.89 116.747C329.502 116.759 327.582 114.892 327.571 112.609C327.56 110.327 329.462 108.442 331.851 108.431C334.239 108.42 336.159 110.286 336.17 112.569Z" stroke="#C9D1D9"/>
<rect x="-0.502374" y="-0.497643" width="39.3951" height="35.7825" rx="16.5" transform="matrix(0.999989 -0.00470179 0.00476004 0.999989 286.606 56.4285)" stroke="#C9D1D9" stroke-linecap="round" stroke-linejoin="round"/>
<path d="M316.263 54.5492L313.835 54.5606L313.792 45.6229L316.22 45.6115L316.263 54.5492Z" stroke="#C9D1D9"/>
<path d="M307.35 54.5911L304.922 54.6025L304.879 45.6648L307.307 45.6534L307.35 54.5911Z" stroke="#C9D1D9"/>
<path d="M297.751 54.6363L295.323 54.6477L295.28 45.7099L297.708 45.6985L297.751 54.6363Z" stroke="#C9D1D9"/>
<path d="M316.488 101.754L314.06 101.765L314.017 92.8272L316.445 92.8158L316.488 101.754Z" stroke="#C9D1D9"/>
<path d="M307.575 101.795L305.146 101.807L305.104 92.8691L307.532 92.8577L307.575 101.795Z" stroke="#C9D1D9"/>
<path d="M297.976 101.841L295.548 101.852L295.505 92.9143L297.933 92.9029L297.976 101.841Z" stroke="#C9D1D9"/>
<path d="M337.563 64.1449L337.573 66.2505L327.603 66.2974L327.593 64.1918L337.563 64.1449Z" stroke="#C9D1D9"/>
<path d="M337.602 72.2193L337.612 74.3248L327.642 74.3717L327.632 72.2661L337.602 72.2193Z" stroke="#C9D1D9"/>
<path d="M337.643 80.9148L337.653 83.0204L327.683 83.0673L327.673 80.9617L337.643 80.9148Z" stroke="#C9D1D9"/>
<path d="M284.088 65.0175L284.098 67.123L274.128 67.1699L274.118 65.0644L284.088 65.0175Z" stroke="#C9D1D9"/>
<path d="M284.126 73.0918L284.136 75.1974L274.167 75.2443L274.156 73.1387L284.126 73.0918Z" stroke="#C9D1D9"/>
<path d="M284.168 81.7874L284.178 83.8929L274.208 83.9398L274.198 81.8343L284.168 81.7874Z" stroke="#C9D1D9"/>
<rect x="0.502374" y="0.497643" width="3.11376" height="6.45339" transform="matrix(0.999989 -0.00470179 0.00476004 0.999989 290.287 110.454)" stroke="#C9D1D9"/>
<rect x="0.502374" y="0.497643" width="3.11376" height="6.45339" transform="matrix(0.999989 -0.00470179 0.00476004 0.999989 297.143 110.421)" stroke="#C9D1D9"/>
<rect x="0.502374" y="0.497643" width="3.11376" height="6.45339" transform="matrix(0.999989 -0.00470179 0.00476004 0.999989 303.999 110.389)" stroke="#C9D1D9"/>
<rect x="0.502374" y="0.497643" width="3.11376" height="6.45339" transform="matrix(0.999989 -0.00470179 0.00476004 0.999989 310.856 110.357)" stroke="#C9D1D9"/>
<rect x="0.502374" y="0.497643" width="3.11376" height="6.45339" transform="matrix(0.999989 -0.00470179 0.00476004 0.999989 317.712 110.325)" stroke="#C9D1D9"/>
<rect x="-0.502374" y="-0.497643" width="79.4208" height="92.9251" rx="15.5" transform="matrix(0.999989 -0.00470179 0.00476004 0.999989 267.022 29.8125)" stroke="#C9D1D9"/>
<rect x="124.233" y="136.885" width="141.589" height="34.6547" rx="6" stroke="#C9D1D9" stroke-width="4"/>
<mask id="path-28-inside-1_443_595" fill="white">
<rect x="139.849" y="145.605" width="18.6519" height="17.8656" rx="2"/>
</mask>
<rect x="139.849" y="145.605" width="18.6519" height="17.8656" rx="2" stroke="#C9D1D9" stroke-width="6" mask="url(#path-28-inside-1_443_595)"/>
<mask id="path-29-inside-2_443_595" fill="white">
<rect x="169.899" y="145.605" width="18.6519" height="17.8656" rx="2"/>
</mask>
<rect x="169.899" y="145.605" width="18.6519" height="17.8656" rx="2" stroke="#C9D1D9" stroke-width="6" mask="url(#path-29-inside-2_443_595)"/>
<mask id="path-30-inside-3_443_595" fill="white">
<rect x="199.949" y="145.605" width="18.6519" height="17.8656" rx="2"/>
</mask>
<rect x="199.949" y="145.605" width="18.6519" height="17.8656" rx="2" stroke="#C9D1D9" stroke-width="6" mask="url(#path-30-inside-3_443_595)"/>
<mask id="path-31-inside-4_443_595" fill="white">
<rect x="230" y="145.605" width="18.6519" height="17.8656" rx="2"/>
</mask>
<rect x="230" y="145.605" width="18.6519" height="17.8656" rx="2" stroke="#C9D1D9" stroke-width="6" mask="url(#path-31-inside-4_443_595)"/>
<rect x="133.257" y="171.757" width="120.31" height="10.6428" rx="1.5" stroke="#C9D1D9" stroke-width="3"/>
<mask id="path-33-inside-5_443_595" fill="white">
<rect x="144.362" y="173.272" width="8.15297" height="8.53029" rx="2"/>
</mask>
<rect x="144.362" y="173.272" width="8.15297" height="8.53029" rx="2" stroke="#C9D1D9" stroke-width="6" mask="url(#path-33-inside-5_443_595)"/>
<mask id="path-34-inside-6_443_595" fill="white">
<rect x="159.504" y="173.272" width="8.15297" height="8.53029" rx="2"/>
</mask>
<rect x="159.504" y="173.272" width="8.15297" height="8.53029" rx="2" stroke="#C9D1D9" stroke-width="6" mask="url(#path-34-inside-6_443_595)"/>
<mask id="path-35-inside-7_443_595" fill="white">
<rect x="174.645" y="173.272" width="8.15297" height="8.53029" rx="2"/>
</mask>
<rect x="174.645" y="173.272" width="8.15297" height="8.53029" rx="2" stroke="#C9D1D9" stroke-width="6" mask="url(#path-35-inside-7_443_595)"/>
<mask id="path-36-inside-8_443_595" fill="white">
<rect x="189.786" y="173.272" width="8.15297" height="8.53029" rx="2"/>
</mask>
<rect x="189.786" y="173.272" width="8.15297" height="8.53029" rx="2" stroke="#C9D1D9" stroke-width="6" mask="url(#path-36-inside-8_443_595)"/>
<mask id="path-37-inside-9_443_595" fill="white">
<rect x="204.927" y="173.272" width="8.15297" height="8.53029" rx="2"/>
</mask>
<rect x="204.927" y="173.272" width="8.15297" height="8.53029" rx="2" stroke="#C9D1D9" stroke-width="6" mask="url(#path-37-inside-9_443_595)"/>
<mask id="path-38-inside-10_443_595" fill="white">
<rect x="220.069" y="173.272" width="8.15297" height="8.53029" rx="2"/>
</mask>
<rect x="220.069" y="173.272" width="8.15297" height="8.53029" rx="2" stroke="#C9D1D9" stroke-width="6" mask="url(#path-38-inside-10_443_595)"/>
<mask id="path-39-inside-11_443_595" fill="white">
<rect x="235.21" y="173.272" width="8.15297" height="8.53029" rx="2"/>
</mask>
<rect x="235.21" y="173.272" width="8.15297" height="8.53029" rx="2" stroke="#C9D1D9" stroke-width="6" mask="url(#path-39-inside-11_443_595)"/>
<rect x="49.991" y="15.692" width="67.988" height="69.1668" stroke="#C9D1D9" stroke-width="4"/>
<rect x="63.373" y="27.3168" width="41.6028" height="45.4893" stroke="#C9D1D9" stroke-width="5"/>
<line x1="59.9631" x2="59.9631" y2="13.692" stroke="#C9D1D9" stroke-width="5"/>
<line x1="59.9631" y1="86.8588" x2="59.9631" y2="100.551" stroke="#C9D1D9" stroke-width="5"/>
<line x1="73.2241" y1="86.8588" x2="73.2241" y2="100.551" stroke="#C9D1D9" stroke-width="5"/>
<line x1="86.4851" y1="86.8588" x2="86.4851" y2="100.551" stroke="#C9D1D9" stroke-width="5"/>
<line x1="100.125" y1="86.8588" x2="100.125" y2="100.551" stroke="#C9D1D9" stroke-width="5"/>
<line x1="111.491" y1="86.8588" x2="111.491" y2="100.551" stroke="#C9D1D9" stroke-width="5"/>
<line x1="73.2241" x2="73.2241" y2="13.692" stroke="#C9D1D9" stroke-width="5"/>
<line x1="86.4851" x2="86.4851" y2="13.692" stroke="#C9D1D9" stroke-width="5"/>
<line x1="100.125" x2="100.125" y2="13.692" stroke="#C9D1D9" stroke-width="5"/>
<line x1="111.491" x2="111.491" y2="13.692" stroke="#C9D1D9" stroke-width="5"/>
<line x1="119.979" y1="74.5177" x2="132.103" y2="74.5177" stroke="#C9D1D9" stroke-width="5"/>
<line x1="119.979" y1="61.6814" x2="132.103" y2="61.6814" stroke="#C9D1D9" stroke-width="5"/>
<line x1="119.979" y1="34.2974" x2="132.103" y2="34.2974" stroke="#C9D1D9" stroke-width="5"/>
<path d="M35.8667 22.2495H47.991" stroke="#C9D1D9" stroke-width="5"/>
<line x1="35.8667" y1="34.2974" x2="47.991" y2="34.2974" stroke="#C9D1D9" stroke-width="5"/>
<line x1="35.8667" y1="47.5615" x2="47.991" y2="47.5615" stroke="#C9D1D9" stroke-width="5"/>
<line x1="35.8667" y1="61.6814" x2="47.991" y2="61.6814" stroke="#C9D1D9" stroke-width="5"/>
<line x1="35.8667" y1="74.5177" x2="47.991" y2="74.5177" stroke="#C9D1D9" stroke-width="5"/>
<path d="M119.979 22.4635H132.103" stroke="#C9D1D9" stroke-width="5"/>
<line x1="119.979" y1="47.5615" x2="132.103" y2="47.5615" stroke="#C9D1D9" stroke-width="5"/>
<line x1="263.191" y1="216.207" x2="276.779" y2="216.207" stroke="#C9D1D9" stroke-width="5"/>
<line x1="263.917" y1="258.201" x2="277.505" y2="258.201" stroke="#C9D1D9" stroke-width="5"/>
<line x1="263.917" y1="270.449" x2="277.505" y2="270.449" stroke="#C9D1D9" stroke-width="5"/>
<line x1="263.917" y1="245.444" x2="277.505" y2="245.444" stroke="#C9D1D9" stroke-width="5"/>
<line x1="265.851" y1="214.263" x2="265.851" y2="247.944" stroke="#C9D1D9" stroke-width="5"/>
<line x1="266.526" y1="255.914" x2="266.526" y2="272.754" stroke="#C9D1D9" stroke-width="5"/>
<line x1="261.653" y1="194.923" x2="280.336" y2="194.923" stroke="#C9D1D9" stroke-width="5"/>
<line x1="353.369" y1="227.583" x2="376.582" y2="227.583" stroke="#C9D1D9" stroke-width="5"/>
<line x1="369.222" y1="216.356" x2="376.582" y2="216.356" stroke="#C9D1D9" stroke-width="5"/>
<line x1="284.299" y1="216.356" x2="291.659" y2="216.356" stroke="#C9D1D9" stroke-width="5"/>
<line x1="284.299" y1="261.774" x2="291.659" y2="261.774" stroke="#C9D1D9" stroke-width="5"/>
<line x1="353.369" y1="236.258" x2="376.582" y2="236.258" stroke="#C9D1D9" stroke-width="5"/>
<line x1="353.369" y1="245.444" x2="376.582" y2="245.444" stroke="#C9D1D9" stroke-width="5"/>
<line x1="353.369" y1="254.629" x2="376.582" y2="254.629" stroke="#C9D1D9" stroke-width="5"/>
<line x1="378.28" y1="272.081" x2="280.336" y2="272.081" stroke="#C9D1D9" stroke-width="5"/>
<line y1="-2.5" x2="12.7264" y2="-2.5" transform="matrix(0.627562 -0.778566 0.836574 0.547855 378.28 274.182)" stroke="#C9D1D9" stroke-width="5"/>
<line x1="382.833" y1="210.666" x2="382.833" y2="263.744" stroke="#C9D1D9" stroke-width="5"/>
<line x1="280.336" y1="208.701" x2="386.206" y2="208.701" stroke="#C9D1D9" stroke-width="5"/>
<line x1="277.836" y1="285.712" x2="277.836" y2="197.423" stroke="#C9D1D9" stroke-width="5"/>
<path d="M337.282 239.013C337.282 249.373 327.879 258.201 315.72 258.201C303.562 258.201 294.159 249.373 294.159 239.013C294.159 228.654 303.562 219.825 315.72 219.825C327.879 219.825 337.282 228.654 337.282 239.013Z" stroke="#C9D1D9" stroke-width="5"/>
<path d="M323.128 239.013C323.128 242.327 320.062 245.444 315.72 245.444C311.378 245.444 308.312 242.327 308.312 239.013C308.312 235.7 311.378 232.583 315.72 232.583C320.062 232.583 323.128 235.7 323.128 239.013Z" stroke="#C9D1D9" stroke-width="5"/>
<line x1="315.673" y1="218.856" x2="315.673" y2="231.103" stroke="#C9D1D9" stroke-width="5"/>
<line x1="315.673" y1="244.882" x2="315.673" y2="257.129" stroke="#C9D1D9" stroke-width="5"/>
<line x1="295.056" y1="238.81" x2="308.643" y2="238.81" stroke="#C9D1D9" stroke-width="5"/>
<line y1="-2.5" x2="12.9349" y2="-2.5" transform="matrix(0.74279 0.669524 -0.74279 0.669524 297.32 226)" stroke="#C9D1D9" stroke-width="5"/>
<line y1="-2.5" x2="12.9349" y2="-2.5" transform="matrix(0.74279 0.669524 -0.74279 0.669524 320.532 246.923)" stroke="#C9D1D9" stroke-width="5"/>
<line y1="-2.5" x2="12.9349" y2="-2.5" transform="matrix(0.74279 -0.669524 0.74279 0.669524 323.929 235.171)" stroke="#C9D1D9" stroke-width="5"/>
<line y1="-2.5" x2="12.9349" y2="-2.5" transform="matrix(0.74279 -0.669524 0.74279 0.669524 302.416 254.052)" stroke="#C9D1D9" stroke-width="5"/>
<line x1="323.363" y1="238.81" x2="336.951" y2="238.81" stroke="#C9D1D9" stroke-width="5"/>
<rect x="320.768" y="272.387" width="49.3507" height="9.79897" rx="4.5" stroke="#C9D1D9" stroke-width="5"/>
</svg>
