<svg width="99" height="35" viewBox="0 0 99 35" fill="none" xmlns="http://www.w3.org/2000/svg">
<path d="M0.142031 32.28V1.88L6.98203 1.28L10.982 3.28V24.6L16.582 24.12L20.582 26.12V32.88L4.14203 34.28L0.142031 32.28ZM6.58203 25.4V1.72L0.542031 2.24V31.88L16.182 30.52V24.56L6.58203 25.4ZM27.5545 31.88V10.52L25.0345 10.72L21.0345 8.72V2L40.9545 0.239999L44.9545 2.24V8.96L38.4345 9.52V33.2L31.5545 33.84L27.5545 31.88ZM40.5545 6.6V0.679998L21.4345 2.36V8.28L27.9545 7.72V31.44L34.0345 30.92V7.16L40.5545 6.6ZM60.7098 31.64L58.8698 28.16L56.2298 33.96L48.5498 34.64L44.5498 32.64L52.5498 16L45.3898 2.12L53.1898 1.44L57.1898 3.44L58.0298 5.04L59.6698 1.24L67.3898 0.559999L71.3898 2.56L64.5498 17.16L72.8298 32.96L64.7098 33.64L60.7098 31.64ZM66.7098 1.04L59.9098 1.64L56.7898 9L52.9498 1.88L45.9898 2.48L52.9898 15.96L45.2298 32.16L51.9498 31.6L56.2698 22.16L60.9498 31.24L68.1498 30.6L60.1098 15.2L66.7098 1.04ZM74.3608 32.4V2L84.7208 1.08C84.8808 1.05333 85.0274 1.04 85.1608 1.04C85.3208 1.04 85.4808 1.04 85.6408 1.04C86.7074 1.04 87.7341 1.2 88.7208 1.52C89.7074 1.84 90.7474 2.25333 91.8408 2.76C93.8941 3.66667 95.4541 4.89333 96.5208 6.44C97.5874 7.96 98.1208 9.94667 98.1208 12.4C98.1208 15.76 97.2674 18.4267 95.5608 20.4C93.8541 22.3733 91.5341 23.48 88.6008 23.72L85.2408 24V33.8L78.3608 34.4L74.3608 32.4ZM84.5608 21.32C87.4141 21.08 89.6541 20.0133 91.2808 18.12C92.9074 16.2 93.7208 13.6267 93.7208 10.4C93.7208 8.61333 93.4008 7.05333 92.7608 5.72C92.1208 4.38667 91.2008 3.34667 90.0008 2.6C88.8274 1.82666 87.4008 1.44 85.7208 1.44C85.5608 1.44 85.4008 1.44 85.2408 1.44C85.0808 1.44 84.9208 1.45333 84.7608 1.48L74.7608 2.36V32L80.8408 31.48V21.64L84.5608 21.32ZM80.8408 7.6L83.5608 7.36C83.6674 7.36 83.7608 7.36 83.8408 7.36C83.9474 7.33333 84.0408 7.32 84.1208 7.32C85.1074 7.32 85.8808 7.61333 86.4408 8.2C87.0274 8.76 87.3208 9.74667 87.3208 11.16C87.3208 12.6267 86.9608 13.72 86.2408 14.44C85.5208 15.16 84.6274 15.5733 83.5608 15.68L80.8408 15.92V7.6ZM85.2408 14.76C85.7741 14.3867 86.1874 13.92 86.4808 13.36C86.7741 12.8 86.9208 12.0667 86.9208 11.16C86.9208 10.6 86.8808 10.16 86.8008 9.84L85.2408 9.96V14.76Z" fill="#F3F4F8" />
</svg>
         