<?xml version="1.0" encoding="iso-8859-1"?>
<!-- Generator: Adobe Illustrator 18.1.1, SVG Export Plug-In . SVG Version: 6.00 Build 0)  -->
<svg version="1.1" id="Capa_1" xmlns="http://www.w3.org/2000/svg" xmlns:xlink="http://www.w3.org/1999/xlink" x="0px" y="0px"
	 viewBox="0 0 52.83 52.83" style="enable-background:new 0 0 52.83 52.83;" xml:space="preserve">
<g>
	<g>
		<path style="fill:#010002;" d="M42.351,2.945H10.478C4.7,2.945,0,7.646,0,13.423v14.066c0,5.778,4.701,10.479,10.478,10.479
			h31.873c5.778,0,10.479-4.701,10.479-10.479V13.424C52.83,7.646,48.129,2.945,42.351,2.945z M49.83,27.489
			c0,4.124-3.355,7.479-7.479,7.479H10.478C6.354,34.968,3,31.613,3,27.489V13.424C3,9.3,6.355,5.946,10.478,5.946h31.873
			c4.124,0,7.479,3.355,7.479,7.478C49.83,13.424,49.83,27.489,49.83,27.489z"/>
		<path style="fill:#010002;" d="M36.684,8.558H16.258c-5.778,0-10.479,4.701-10.479,10.479v1.347
			c0,5.778,4.701,10.478,10.479,10.478h20.426c5.778,0,10.478-4.7,10.478-10.478v-1.347C47.162,13.258,42.462,8.558,36.684,8.558z
			 M44.162,20.383c0,4.124-3.354,7.478-7.478,7.478H16.258c-4.124,0-7.479-3.354-7.479-7.478v-1.347
			c0-4.124,3.355-7.479,7.479-7.479h20.426c4.124,0,7.478,3.355,7.478,7.479V20.383z"/>
		<path style="fill:#010002;" d="M46.841,40.863H5.989C2.631,40.863,0,42.844,0,45.374c0,2.53,2.631,4.511,5.989,4.511h40.852
			c3.358,0,5.989-1.981,5.989-4.511S50.199,40.863,46.841,40.863z M46.841,46.885H5.989C4.164,46.885,3,45.99,3,45.374
			s1.164-1.511,2.989-1.511h40.852c1.825,0,2.989,0.895,2.989,1.511S48.665,46.885,46.841,46.885z"/>
	</g>
</g>
<g>
</g>
<g>
</g>
<g>
</g>
<g>
</g>
<g>
</g>
<g>
</g>
<g>
</g>
<g>
</g>
<g>
</g>
<g>
</g>
<g>
</g>
<g>
</g>
<g>
</g>
<g>
</g>
<g>
</g>
</svg>
